ply
format ascii 1.0
element vertex 25
property float32 x
property float32 y
property float32 z
end_header
0.2810 0.2620 0.2227
0.2784 0.2648 0.2227
0.2730 0.2703 0.2227
0.2703 0.2730 0.2227
0.2676 0.2757 0.2227
0.2621 0.2809 0.2227
0.2649 0.2783 0.2227
0.2564 0.2861 0.2227
0.2536 0.2886 0.2227
0.2593 0.2835 0.2227
0.2507 0.2911 0.2227
0.2757 0.2676 0.2227
0.2448 0.2960 0.2227
0.2478 0.2936 0.2227
0.2419 0.2984 0.2227
0.2359 0.3032 0.2228
0.2329 0.3055 0.2228
0.2389 0.3008 0.2228
0.2298 0.3078 0.2228
0.2267 0.3101 0.2228
0.2205 0.3145 0.2228
0.2237 0.3123 0.2228
0.2174 0.3167 0.2228
0.2142 0.3189 0.2228
0.2110 0.3210 0.2228
